<?xml version="1.0" standalone="no"?>
<!DOCTYPE svg PUBLIC "-//W3C//DTD SVG 20010904//EN"
 "http://www.w3.org/TR/2001/REC-SVG-20010904/DTD/svg10.dtd">
<svg version="1.0" xmlns="http://www.w3.org/2000/svg"
 width="234.000000pt" height="204.000000pt" viewBox="0 0 234.000000 204.000000"
 preserveAspectRatio="xMidYMid meet">

<g transform="translate(0.000000,204.000000) scale(0.100000,-0.100000)"
fill="#000000" stroke="none">
<path d="M1685 1905 c-5 -2 -23 -6 -38 -9 -36 -8 -111 -78 -143 -132 -22 -38
-29 -42 -72 -46 -100 -10 -167 -69 -199 -178 -25 -80 -20 -231 9 -347 13 -51
24 -93 23 -93 -1 0 -30 36 -65 81 -188 239 -428 378 -630 367 -296 -18 -341
-316 -89 -593 27 -30 38 -52 42 -89 31 -229 398 -475 953 -635 230 -67 659
-157 669 -141 7 12 -7 20 -34 20 -15 0 -35 6 -46 14 -11 7 -33 16 -49 20 -16
4 -120 40 -231 80 -519 189 -902 391 -1163 617 -78 67 -83 74 -78 103 26 134
220 209 420 162 147 -35 357 -160 396 -237 12 -22 25 -37 31 -33 6 3 24 -6 40
-22 42 -40 49 -21 8 22 l-34 35 1 237 c0 169 5 264 17 330 20 120 57 243 74
249 46 18 218 -121 296 -239 184 -279 294 -712 300 -1181 4 -267 32 -126 58
288 20 325 -16 667 -97 926 -55 177 -171 352 -263 398 -37 19 -88 31 -106 26z
m91 -41 c112 -53 220 -235 284 -478 40 -154 60 -293 69 -486 7 -153 -2 -527
-14 -538 -3 -3 -5 12 -5 34 0 21 -7 98 -15 169 -66 570 -270 998 -536 1125
-63 29 -62 27 -11 103 52 78 150 108 228 71z m-311 -181 c-56 -136 -78 -290
-79 -554 -1 -125 -3 -226 -6 -224 -16 10 -82 161 -106 240 -20 69 -27 120 -31
215 -6 141 2 182 47 253 33 53 91 86 149 87 28 0 32 -3 26 -17z m-760 -168
c122 -32 235 -99 351 -207 100 -94 232 -267 260 -341 4 -12 -22 1 -76 37 -190
127 -420 171 -567 106 -57 -24 -129 -94 -139 -134 -3 -14 -9 -26 -13 -26 -26
0 -129 153 -161 236 -39 107 -22 221 43 282 61 57 186 77 302 47z m-114 -671
c45 -47 192 -158 298 -224 247 -154 521 -281 906 -421 88 -32 157 -58 154 -59
-15 0 -203 41 -320 70 -234 59 -492 151 -656 234 -190 95 -348 232 -403 348
-46 96 -39 114 21 52z"/>
</g>
</svg>
